<svg id="Icons" height="512" viewBox="0 0 74 74" width="512" xmlns="http://www.w3.org/2000/svg"><path d="m29.571 59.594a.992.992 0 0 1 -.579-.186l-14.246-10.142a1 1 0 0 1 -.234-1.395l31.706-44.533a3.189 3.189 0 0 1 4.442-.747l10.685 7.609a3.19 3.19 0 0 1 .748 4.443l-31.706 44.531a1 1 0 0 1 -.816.42zm-12.85-11.378 12.617 8.984 31.126-43.719a1.187 1.187 0 0 0 -.279-1.654l-10.685-7.607a1.186 1.186 0 0 0 -1.653.279z"/><path d="m12.316 68.755a1 1 0 0 1 -.988-1.154l3.01-19.3a1 1 0 0 1 1.568-.66l14.246 10.138a1 1 0 0 1 -.111 1.7l-17.256 9.159a1 1 0 0 1 -.469.117zm3.748-18.55-2.452 15.73 14.062-7.465z"/><path d="m52.4 27.526a1 1 0 0 1 -.579-.185l-14.244-10.141a1 1 0 0 1 1.16-1.629l14.246 10.141a1 1 0 0 1 -.581 1.814z"/><path d="m22.448 54.522a1 1 0 0 1 -.813-1.58l22.831-32.067a1 1 0 0 1 1.629 1.16l-22.831 32.065a1 1 0 0 1 -.816.422z"/><path d="m41.521 72h-27.321a1 1 0 1 1 0-2h27.321a1 1 0 0 1 0 2z"/><path d="m49.536 72h-2.551a1 1 0 0 1 0-2h2.551a1 1 0 0 1 0 2z"/></svg>