<svg id="Layer_5" enable-background="new 0 0 64 64" height="512" viewBox="0 0 64 64" width="512" xmlns="http://www.w3.org/2000/svg"><g><path d="m7 45h2v2h-2z"/><path d="m11 45h2v2h-2z"/><path d="m15 45h2v2h-2z"/><path d="m58.342 22.447c-.447-.892-1.344-1.447-2.342-1.447-.355 0-.686.092-1 .222v-5.222c0-2.757-2.243-5-5-5h-24.184c-.414-1.161-1.514-2-2.816-2v-3c0-2.757-2.243-5-5-5s-5 2.243-5 5v3c-1.302 0-2.402.839-2.816 2h-4.184c-2.757 0-5 2.243-5 5v30c0 2.757 2.243 5 5 5h13.962c-.168 1.595-.997 3.041-2.296 4h-4.666c-1.654 0-3 1.346-3 3v2c0 1.654 1.346 3 3 3h30c1.654 0 3-1.346 3-3v-2c0-1.654-1.346-3-3-3h-4.666c-1.299-.959-2.128-2.405-2.296-4h12.962v5c0 3.86 3.141 7 7 7s7-3.14 7-7v-24.236zm-1.789.895 3.829 7.658h-8.764l3.829-7.658c.211-.423.895-.422 1.106 0zm-35.553-4.342h-4v2h4v2h-2v2h2v2h-4v2h3.382l-1.829 3.658c-.211.423-.895.422-1.105 0l-2.448-4.894v-12.764h6zm9 16c.552 0 1 .449 1 1s-.448 1-1 1h-18c-.552 0-1-.449-1-1s.448-1 1-1zm-14.618-2h-3.382c-1.654 0-3 1.346-3 3s1.346 3 3 3h18c1.654 0 3-1.346 3-3s-1.346-3-3-3h-9.382l2.382-4.764v-11.236h26v14.764.236 9h-42v-24h6v11.236zm35.618 14v-14h4v14zm0 2h10v2h-10zm6-2v-14h4v14zm-4-31v7.763l-2 4v-10.763c0-1.103-.897-2-2-2h-26c1.302 0 2.402-.839 2.816-2h24.184c1.654 0 3 1.346 3 3zm-38-10c0-1.654 1.346-3 3-3s3 1.346 3 3v3h-6zm-2 5h10c.552 0 1 .449 1 1s-.448 1-1 1h-10c-.552 0-1-.449-1-1s.448-1 1-1zm31 47v2c0 .551-.448 1-1 1h-30c-.552 0-1-.449-1-1v-2c0-.551.448-1 1-1h30c.552 0 1 .449 1 1zm-8.47-3h-15.06c.858-1.155 1.378-2.536 1.492-4h12.075c.115 1.464.635 2.845 1.493 4zm-29.53-6c-1.654 0-3-1.346-3-3v-30c0-1.654 1.346-3 3-3h4.184c.414 1.161 1.514 2 2.816 2h-6c-1.103 0-2 .897-2 2v24c0 1.103.897 2 2 2h42v6zm50 12c-2.757 0-5-2.243-5-5v-3h10v3c0 2.757-2.243 5-5 5z"/><path d="m47 19h-16v12h16zm-2 10h-12v-8h12z"/><path d="m35.447 27.895 3.553-1.777 3.553 1.777.894-1.79-2.211-1.105 2.211-1.105-.894-1.79-3.553 1.777-3.553-1.777-.894 1.79 2.211 1.105-2.211 1.105z"/><path d="m35 33h12v2h-12z"/><path d="m45 37h2v2h-2z"/><path d="m35 37h8v2h-8z"/></g></svg>